<svg width="29" height="35" viewBox="0 0 29 35" fill="none" xmlns="http://www.w3.org/2000/svg">
<path fill-rule="evenodd" clip-rule="evenodd" d="M17.046 10.0434C17.2065 10.2309 17.2967 10.4851 17.2967 10.7501C17.2967 11.0151 17.2065 11.2693 17.046 11.4568L11.9374 17.4168L17.046 23.3768C17.1302 23.4683 17.1978 23.5787 17.2446 23.7014C17.2915 23.824 17.3167 23.9565 17.3187 24.0907C17.3207 24.225 17.2996 24.3584 17.2564 24.4829C17.2133 24.6074 17.1492 24.7205 17.0678 24.8155C16.9864 24.9104 16.8894 24.9853 16.7827 25.0356C16.676 25.0859 16.5617 25.1106 16.4466 25.1082C16.3315 25.1059 16.218 25.0765 16.1128 25.0218C16.0077 24.9671 15.9131 24.8883 15.8346 24.7901L10.1203 18.1234C9.95979 17.9359 9.86963 17.6818 9.86963 17.4168C9.86963 17.1518 9.95979 16.8976 10.1203 16.7101L15.8346 10.0434C15.9953 9.85616 16.2132 9.75098 16.4403 9.75098C16.6674 9.75098 16.8853 9.85616 17.046 10.0434Z" fill="#FFF2F2"/>
</svg>
