<svg width="25" height="24" viewBox="0 0 25 24" fill="none" xmlns="http://www.w3.org/2000/svg">
<path d="M8.16855 2.51905C6.86855 2.20476 5.50605 2.3381 4.43855 2.90714C3.35105 3.48571 2.58855 4.5119 2.55105 5.88452C2.49355 8.02976 3.0148 10.9083 5.0848 14.2869C7.12855 17.6238 9.3848 19.6238 11.2573 20.8119C12.4398 21.5631 13.746 21.5833 14.8623 21.094C15.9623 20.6119 16.8548 19.6488 17.3185 18.4548C17.434 18.1578 17.4803 17.8405 17.4544 17.5248C17.4285 17.2091 17.331 16.9025 17.1685 16.6262L15.976 14.6C15.6095 13.9764 15.0195 13.4992 14.314 13.2557C13.6085 13.0122 12.8345 13.0186 12.1335 13.2738L11.301 13.5774C10.8973 13.7238 10.526 13.656 10.316 13.4583C9.6098 12.7976 9.1048 11.9012 8.87605 10.9345C8.80355 10.6298 8.95105 10.2702 9.30355 10.0167L10.0548 9.47619C10.6621 9.03972 11.0814 8.40722 11.234 7.69731C11.3866 6.98741 11.262 6.24888 10.8835 5.62024L9.66855 3.60238C9.50758 3.33523 9.29183 3.10165 9.03414 2.91554C8.77645 2.72943 8.48208 2.59459 8.16855 2.51905ZM3.80105 5.91667C3.82605 4.99524 4.31605 4.33691 5.04855 3.94643C5.80105 3.54524 6.82855 3.42262 7.86105 3.67262C8.01234 3.70901 8.15439 3.77404 8.27873 3.86383C8.40307 3.95361 8.50716 4.06632 8.5848 4.19524L9.79855 6.2131C10.0256 6.59013 10.1004 7.03307 10.0091 7.45889C9.9177 7.88471 9.66641 8.26419 9.3023 8.52619L8.55105 9.06667C7.90105 9.53333 7.45105 10.3333 7.65605 11.1964C7.93355 12.3655 8.5473 13.4738 9.4398 14.3083C10.0923 14.9179 11.0223 14.9536 11.7473 14.6893L12.5798 14.3857C13.0004 14.2324 13.4649 14.2284 13.8884 14.3744C14.3119 14.5204 14.666 14.8067 14.886 15.181L16.0773 17.2083C16.2273 17.4631 16.2523 17.7679 16.146 18.0417C15.7835 18.9762 15.1023 19.6774 14.3398 20.0119C13.5935 20.3393 12.7498 20.3298 11.951 19.8214C10.2373 18.7333 8.11355 16.8679 6.16355 13.6869C4.2123 10.4964 3.7498 7.83691 3.8023 5.91667H3.80105ZM15.9285 2.45476C15.7837 2.37804 15.6127 2.35927 15.4533 2.40258C15.2939 2.44589 15.1591 2.54774 15.0785 2.68571C14.998 2.82369 14.9783 2.98649 15.0238 3.13831C15.0692 3.29012 15.1762 3.41851 15.321 3.49524L15.801 3.75C17.3006 4.54334 18.5761 5.67065 19.5186 7.0356C20.4612 8.40055 21.0427 9.96255 21.2135 11.5881L21.2535 11.9631C21.2583 12.0434 21.28 12.1219 21.3175 12.1939C21.3549 12.266 21.4073 12.33 21.4715 12.3823C21.5356 12.4345 21.6102 12.4738 21.6908 12.4979C21.7713 12.5219 21.8561 12.5301 21.9401 12.5221C22.0241 12.514 22.1055 12.4899 22.1794 12.451C22.2533 12.4122 22.3182 12.3595 22.3702 12.2962C22.4221 12.2328 22.4601 12.1601 22.4817 12.0824C22.5033 12.0047 22.5082 11.9236 22.496 11.844L22.4573 11.4702C22.2666 9.65309 21.6166 7.90694 20.5631 6.38109C19.5095 4.85525 18.0836 3.59508 16.4073 2.70833L15.9285 2.45476ZM14.4635 5.64524C14.5489 5.50997 14.6872 5.41253 14.848 5.37435C15.0088 5.33618 15.179 5.36039 15.321 5.44167L15.476 5.52976C16.485 6.1059 17.3506 6.88384 18.013 7.80981C18.6753 8.73579 19.1187 9.78771 19.3123 10.8929L19.3673 11.2107C19.383 11.2887 19.3822 11.3688 19.3649 11.4465C19.3477 11.5241 19.3143 11.5977 19.2667 11.6629C19.2191 11.728 19.1583 11.7835 19.0879 11.8259C19.0175 11.8684 18.9389 11.897 18.8567 11.9101C18.7745 11.9232 18.6904 11.9205 18.6093 11.9022C18.5282 11.8839 18.4518 11.8503 18.3845 11.8035C18.3172 11.7566 18.2605 11.6974 18.2176 11.6293C18.1747 11.5613 18.1466 11.4857 18.1348 11.4071L18.0785 11.0893C17.915 10.1543 17.5402 9.26435 16.9802 8.48083C16.4201 7.69731 15.6881 7.03893 14.8348 6.55119L14.6798 6.46191C14.6094 6.42174 14.5479 6.36875 14.499 6.30596C14.4501 6.24318 14.4146 6.17183 14.3947 6.09599C14.3747 6.02015 14.3706 5.94131 14.3826 5.86397C14.3947 5.78663 14.4226 5.7123 14.4648 5.64524H14.4635Z" fill="#DAD6D6"/>
</svg>
