<svg width="13" height="9" viewBox="0 0 13 9" fill="none" xmlns="http://www.w3.org/2000/svg">
<path d="M4.12496 7.90076L4.12615 7.89958L0.9199 4.69333C0.811662 4.58142 0.751707 4.43148 0.752949 4.2758C0.75419 4.12012 0.816529 3.97115 0.926538 3.86099C1.03655 3.75082 1.18543 3.68827 1.3411 3.68681C1.49678 3.68535 1.64681 3.74509 1.75887 3.85317L4.96512 7.06001L11.263 0.763296C11.3178 0.706587 11.3833 0.661354 11.4558 0.630236C11.5282 0.599118 11.6061 0.582739 11.6849 0.582054C11.7638 0.581369 11.842 0.596391 11.9149 0.626246C11.9879 0.6561 12.0542 0.700188 12.1099 0.755936C12.1657 0.811685 12.2098 0.877978 12.2396 0.950948C12.2695 1.02392 12.2845 1.1021 12.2838 1.18094C12.2831 1.25978 12.2668 1.33769 12.2356 1.41013C12.2045 1.48257 12.1593 1.54809 12.1026 1.60286L5.38431 8.32055C5.27296 8.43186 5.12197 8.49439 4.96452 8.49439C4.80708 8.49439 4.65609 8.43186 4.54474 8.32055L4.12496 7.90076Z" fill="#BF545C"/>
</svg>
