<svg width="31" height="25" viewBox="0 0 31 25" fill="none" xmlns="http://www.w3.org/2000/svg">
<path d="M26.1562 0C27.4409 0 28.6729 0.506523 29.5813 1.40814C30.4897 2.30976 31 3.53261 31 4.80769V20.1923C31 21.4674 30.4897 22.6902 29.5813 23.5919C28.6729 24.4935 27.4409 25 26.1562 25H4.84375C3.55911 25 2.32708 24.4935 1.4187 23.5919C0.510322 22.6902 0 21.4674 0 20.1923V4.80769C0 3.53261 0.510322 2.30976 1.4187 1.40814C2.32708 0.506523 3.55911 0 4.84375 0H26.1562ZM29.0625 7.61731L15.9921 15.2519C15.8686 15.3239 15.7304 15.3678 15.5877 15.3805C15.445 15.3931 15.3012 15.3742 15.1667 15.325L15.0079 15.2519L1.9375 7.62115V20.1923C1.9375 20.9574 2.24369 21.6911 2.78872 22.232C3.33375 22.773 4.07296 23.0769 4.84375 23.0769H26.1562C26.927 23.0769 27.6663 22.773 28.2113 22.232C28.7563 21.6911 29.0625 20.9574 29.0625 20.1923V7.61731ZM26.1562 1.92308H4.84375C4.07296 1.92308 3.33375 2.22699 2.78872 2.76796C2.24369 3.30893 1.9375 4.04264 1.9375 4.80769V5.38846L15.5 13.3077L29.0625 5.38462V4.80769C29.0625 4.04264 28.7563 3.30893 28.2113 2.76796C27.6663 2.22699 26.927 1.92308 26.1562 1.92308Z" fill="#BF545C"/>
</svg>
