<svg width="29" height="29" viewBox="0 0 29 29" fill="none" xmlns="http://www.w3.org/2000/svg">
<path d="M22.2854 28.9997C16.3773 28.9921 10.7134 26.637 6.53571 22.4511C2.35804 18.2651 0.00765796 12.5899 0 6.67007C0 4.9011 0.701327 3.20458 1.9497 1.95373C3.19807 0.702886 4.89122 0.000165725 6.65668 0.000165725C7.03053 -0.00268754 7.40375 0.0313089 7.77096 0.101664C8.12595 0.154299 8.47493 0.241717 8.81287 0.36266C9.05056 0.446222 9.26236 0.5905 9.42733 0.781229C9.5923 0.971958 9.70472 1.20253 9.75349 1.45014L11.736 10.15C11.7895 10.3862 11.783 10.632 11.7173 10.865C11.6516 11.098 11.5287 11.3108 11.3598 11.484C11.1717 11.687 11.1572 11.7015 9.37724 12.6295C10.8026 15.7627 13.3035 18.2788 16.4246 19.7199C17.3653 17.9219 17.3797 17.9074 17.5823 17.7189C17.7552 17.5497 17.9676 17.4265 18.2001 17.3607C18.4327 17.2948 18.678 17.2884 18.9137 17.3419L27.5963 19.3284C27.8355 19.384 28.0567 19.4997 28.2389 19.6646C28.4212 19.8295 28.5586 20.0381 28.6382 20.2709C28.7604 20.615 28.8523 20.9692 28.9132 21.3294C28.9714 21.6938 29.0004 22.0623 29 22.4313C28.9733 24.1927 28.2523 25.872 26.9943 27.1027C25.7363 28.3333 24.0435 29.0153 22.2854 28.9997ZM6.65668 2.90012C5.65999 2.90394 4.7052 3.30236 4.00043 4.00853C3.29565 4.71471 2.89802 5.67139 2.89421 6.67007C2.89804 11.822 4.94227 16.7618 8.578 20.4047C12.2137 24.0477 17.1437 26.0959 22.2854 26.0998C23.2821 26.096 24.2369 25.6975 24.9417 24.9914C25.6465 24.2852 26.0441 23.3285 26.0479 22.3298V21.8513L19.3333 20.2999L18.9137 21.0974C18.2625 22.3588 17.7849 23.2723 16.5694 22.7793C14.1713 21.9193 11.9946 20.5348 10.1974 18.7265C8.40012 16.9181 7.02747 14.7313 6.17914 12.325C5.65818 11.194 6.64221 10.672 7.88672 10.0195L8.68263 9.62803L7.13423 2.90012H6.65668Z" fill="#BF545C"/>
</svg>
