<svg width="25" height="40" viewBox="0 0 25 40" fill="none" xmlns="http://www.w3.org/2000/svg">
<path fill-rule="evenodd" clip-rule="evenodd" d="M12.5 2.49907C11.5151 2.49907 10.5398 2.69307 9.62987 3.06998C8.71993 3.44689 7.89314 3.99933 7.1967 4.69577C6.50026 5.39221 5.94781 6.21901 5.5709 7.12895C5.19399 8.03889 5 9.01416 5 9.99907C5 10.984 5.19399 11.9593 5.5709 12.8692C5.94781 13.7791 6.50026 14.6059 7.1967 15.3024C7.89314 15.9988 8.71993 16.5513 9.62987 16.9282C10.5398 17.3051 11.5151 17.4991 12.5 17.4991C14.4891 17.4991 16.3968 16.7089 17.8033 15.3024C19.2098 13.8959 20 11.9882 20 9.99907C20 8.00995 19.2098 6.1023 17.8033 4.69577C16.3968 3.28925 14.4891 2.49907 12.5 2.49907ZM2.5 9.99907C2.50018 8.07464 3.05564 6.19113 4.09974 4.57455C5.14383 2.95798 6.6322 1.677 8.38626 0.88534C10.1403 0.0936771 12.0856 -0.175046 13.9885 0.111415C15.8915 0.397876 17.6715 1.22735 19.1147 2.50031C20.558 3.77328 21.6033 5.43565 22.1252 7.28796C22.6471 9.14027 22.6235 11.1038 22.0571 12.943C21.4908 14.7822 20.4057 16.419 18.9322 17.6568C17.4587 18.8946 15.6593 19.681 13.75 19.9216V33.7491C13.75 34.0806 13.6183 34.3985 13.3839 34.633C13.1495 34.8674 12.8315 34.9991 12.5 34.9991C12.1685 34.9991 11.8505 34.8674 11.6161 34.633C11.3817 34.3985 11.25 34.0806 11.25 33.7491V19.9241C8.83241 19.6195 6.60922 18.4427 4.99804 16.6147C3.38685 14.7867 2.49855 12.4333 2.5 9.99657V9.99907ZM8.7325 31.4341C8.78671 31.7609 8.70894 32.0959 8.51627 32.3655C8.32361 32.635 8.03181 32.8171 7.705 32.8716C5.925 33.1666 4.505 33.6091 3.5675 34.1041C3.22311 34.2696 2.91012 34.4938 2.6425 34.7666C2.582 34.8325 2.53374 34.9087 2.5 34.9916V34.9991L2.505 35.0191C2.51484 35.0481 2.52828 35.0759 2.545 35.1016C2.64367 35.2462 2.76626 35.3731 2.9075 35.4766C3.32 35.8016 3.995 36.1516 4.94 36.4641C6.8175 37.0891 9.49 37.4991 12.5 37.4991C15.51 37.4991 18.1825 37.0916 20.06 36.4641C21.005 36.1491 21.68 35.8016 22.0925 35.4766C22.2346 35.3732 22.358 35.2464 22.4575 35.1016C22.4733 35.0757 22.4859 35.048 22.495 35.0191L22.5 34.9991V34.9891C22.4663 34.9062 22.418 34.83 22.3575 34.7641C22.0897 34.4922 21.7767 34.2688 21.4325 34.1041C20.4925 33.6091 19.075 33.1666 17.295 32.8716C17.1292 32.8491 16.9696 32.7936 16.8256 32.7083C16.6817 32.623 16.5563 32.5097 16.457 32.375C16.3576 32.2404 16.2864 32.0872 16.2473 31.9244C16.2083 31.7617 16.2023 31.5929 16.2298 31.4278C16.2572 31.2627 16.3176 31.1049 16.4071 30.9636C16.4967 30.8223 16.6138 30.7004 16.7514 30.6051C16.8889 30.5099 17.0442 30.4432 17.208 30.4091C17.3719 30.375 17.5408 30.3742 17.705 30.4066C19.63 30.7241 21.335 31.2266 22.5975 31.8916C23.75 32.4991 25 33.4991 25 34.9991C25 36.0641 24.35 36.8791 23.64 37.4416C22.915 38.0116 21.94 38.4741 20.85 38.8366C18.655 39.5691 15.7025 39.9991 12.5 39.9991C9.2975 39.9991 6.345 39.5691 4.15 38.8366C3.06 38.4741 2.085 38.0116 1.36 37.4416C0.65 36.8791 0 36.0641 0 34.9991C0 33.5016 1.25 32.4991 2.4025 31.8916C3.665 31.2266 5.37 30.7241 7.295 30.4066C7.62186 30.3524 7.95687 30.4301 8.22642 30.6228C8.49596 30.8155 8.67799 31.1073 8.7325 31.4341Z" fill="#BF545C"/>
</svg>
