<svg width="38" height="38" viewBox="0 0 38 38" fill="none" xmlns="http://www.w3.org/2000/svg">
<g clip-path="url(#clip0_73_560)">
<path d="M28.8943 21.2325C27.6498 23.7547 25.9635 26.2675 24.2393 28.5238C22.6036 30.6508 20.8546 32.6884 19 34.6275C17.1453 32.6884 15.3964 30.6509 13.7608 28.5238C12.0365 26.2675 10.3503 23.7547 9.10575 21.2325C7.847 18.6841 7.125 16.2973 7.125 14.25C7.125 11.1006 8.37611 8.0801 10.6031 5.85311C12.8301 3.62611 15.8506 2.375 19 2.375C22.1494 2.375 25.1699 3.62611 27.3969 5.85311C29.6239 8.0801 30.875 11.1006 30.875 14.25C30.875 16.2973 30.1506 18.6841 28.8943 21.2325ZM19 38C19 38 33.25 24.4958 33.25 14.25C33.25 10.4707 31.7487 6.84612 29.0763 4.17373C26.4039 1.50133 22.7793 0 19 0C15.2207 0 11.5961 1.50133 8.92373 4.17373C6.25133 6.84612 4.75 10.4707 4.75 14.25C4.75 24.4958 19 38 19 38Z" fill="#BF545C"/>
<path d="M19 19C17.7402 19 16.532 18.4996 15.6412 17.6088C14.7504 16.718 14.25 15.5098 14.25 14.25C14.25 12.9902 14.7504 11.782 15.6412 10.8912C16.532 10.0004 17.7402 9.5 19 9.5C20.2598 9.5 21.468 10.0004 22.3588 10.8912C23.2496 11.782 23.75 12.9902 23.75 14.25C23.75 15.5098 23.2496 16.718 22.3588 17.6088C21.468 18.4996 20.2598 19 19 19ZM19 21.375C20.8897 21.375 22.7019 20.6243 24.0381 19.2881C25.3743 17.9519 26.125 16.1397 26.125 14.25C26.125 12.3603 25.3743 10.5481 24.0381 9.21186C22.7019 7.87567 20.8897 7.125 19 7.125C17.1103 7.125 15.2981 7.87567 13.9619 9.21186C12.6257 10.5481 11.875 12.3603 11.875 14.25C11.875 16.1397 12.6257 17.9519 13.9619 19.2881C15.2981 20.6243 17.1103 21.375 19 21.375Z" fill="#BF545C"/>
</g>
<defs>
<clipPath id="clip0_73_560">
<rect width="38" height="38" fill="white"/>
</clipPath>
</defs>
</svg>
