<svg width="24" height="20" viewBox="0 0 24 20" fill="none" xmlns="http://www.w3.org/2000/svg">
<rect width="23" height="19" transform="translate(0.5 0.5)" fill="black" fill-opacity="0.8"/>
<path fill-rule="evenodd" clip-rule="evenodd" d="M6.91249 8.33052C7.04186 8.22377 7.21724 8.16382 7.40009 8.16382C7.58294 8.16382 7.75831 8.22377 7.88769 8.33052L12.0001 11.7277L16.1125 8.33052C16.2433 8.22983 16.4163 8.17502 16.595 8.17762C16.7738 8.18023 16.9444 8.24005 17.0708 8.34448C17.1972 8.44892 17.2696 8.58981 17.2728 8.73748C17.2759 8.88515 17.2096 9.02806 17.0877 9.13612L12.4877 12.9361C12.3583 13.0429 12.1829 13.1028 12.0001 13.1028C11.8172 13.1028 11.6419 13.0429 11.5125 12.9361L6.91249 9.13612C6.78327 9.02924 6.71069 8.88437 6.71069 8.73332C6.71069 8.58227 6.78327 8.43739 6.91249 8.33052Z" fill="#F7ECEC"/>
</svg>
